<?xml version="1.0" encoding="UTF-8" standalone="no"?>
<!-- Created with Inkscape (http://www.inkscape.org/) -->

<svg
   xmlns:dc="http://purl.org/dc/elements/1.1/"
   xmlns:cc="http://creativecommons.org/ns#"
   xmlns:rdf="http://www.w3.org/1999/02/22-rdf-syntax-ns#"
   xmlns:svg="http://www.w3.org/2000/svg"
   xmlns="http://www.w3.org/2000/svg"
   xmlns:sodipodi="http://sodipodi.sourceforge.net/DTD/sodipodi-0.dtd"
   xmlns:inkscape="http://www.inkscape.org/namespaces/inkscape"
   width="141.90161"
   height="40.083832"
   id="svg3068"
   version="1.1"
   inkscape:version="0.48.2 r9819"
   sodipodi:docname="ghinda-logo.svg"
   inkscape:export-filename="D:\Dev\ghinda.github.com\images\ghinda-logo.png"
   inkscape:export-xdpi="94.302361"
   inkscape:export-ydpi="94.302361">
  <defs
     id="defs3070" />
  <sodipodi:namedview
     id="base"
     pagecolor="#ff9859"
     bordercolor="#666666"
     borderopacity="1.0"
     inkscape:pageopacity="0"
     inkscape:pageshadow="2"
     inkscape:zoom="2.8"
     inkscape:cx="68.371245"
     inkscape:cy="20.627258"
     inkscape:document-units="px"
     inkscape:current-layer="layer1"
     showgrid="false"
     inkscape:window-width="1366"
     inkscape:window-height="706"
     inkscape:window-x="-8"
     inkscape:window-y="24"
     inkscape:window-maximized="1"
     fit-margin-top="1"
     fit-margin-left="1"
     fit-margin-right="1"
     fit-margin-bottom="1" />
  <metadata
     id="metadata3073">
    <rdf:RDF>
      <cc:Work
         rdf:about="">
        <dc:format>image/svg+xml</dc:format>
        <dc:type
           rdf:resource="http://purl.org/dc/dcmitype/StillImage" />
        <dc:title></dc:title>
      </cc:Work>
    </rdf:RDF>
  </metadata>
  <g
     inkscape:label="Layer 1"
     inkscape:groupmode="layer"
     id="layer1"
     transform="translate(-117.75449,-228.88902)">
    <rect
       style="fill:#ff8080;fill-opacity:0.8;stroke:none"
       id="rect3776"
       width="160.71428"
       height="102.5"
       x="-52.602657"
       y="184.68713" />
    <path
       style="fill:#ffffff;fill-opacity:0.86274511"
       d="M 127.91404,229.88902 L 127.39812,231.80042 C 126.99331,231.85625 126.59651,231.92461 126.2056,232.02032 L 125.76581,233.27204 C 125.18117,233.45782 124.61949,233.68756 124.08276,233.96556 L 122.89023,233.39891 C 121.25606,234.39108 119.88164,235.76493 118.88981,237.39933 L 119.45646,238.59185 C 119.17833,239.12844 118.75449,240.2749 118.75449,240.2749 L 139.31482,240.2749 C 139.31482,240.2749 138.89835,239.13537 138.62131,238.60031 L 138.62131,238.59186 L 139.18795,237.39933 C 138.19614,235.76495 136.8217,234.39108 135.18754,233.39892 L 133.98656,233.96556 C 133.44996,233.68757 132.88805,233.45782 132.30351,233.27205 L 131.86371,232.02033 C 131.40204,231.90729 130.93212,231.83221 130.4513,231.77506 L 129.94386,229.88903 L 127.91404,229.88903 z M 124.43797,241.12066 C 121.08394,241.12794 120.93173,241.15577 120.76738,241.25599 C 120.35798,241.50562 120.32173,241.66989 120.24302,243.53107 C 120.13246,246.14571 120.13232,249.91945 120.24302,250.45782 C 120.46517,251.53881 121.01457,252.82068 121.67235,253.807 C 122.11505,254.47082 123.34892,255.73134 123.93898,256.12437 C 124.17033,256.27848 124.80311,256.65849 125.34293,256.96168 C 125.88274,257.26485 126.92181,257.86205 127.65184,258.29797 C 128.86182,259.02046 128.99139,259.08626 129.12346,258.99994 C 129.56623,258.71063 131.49926,257.56823 132.3458,257.09699 C 133.91013,256.2262 134.78645,255.58941 135.55967,254.75426 C 136.57731,253.65508 137.37077,252.00513 137.68252,250.34786 C 137.78394,249.80868 137.79052,249.27915 137.75863,246.05142 C 137.72599,242.74646 137.6296,242.5308 137.53029,241.90721 C 137.50899,241.77371 137.38151,241.56343 137.22581,241.39976 L 136.96362,241.12066 L 128.97969,241.12066 C 127.03058,241.12072 125.55598,241.11823 124.43797,241.12066 z"
       id="path4033"
       inkscape:connector-curvature="0" />
    <text
       xml:space="preserve"
       style="font-size:38.00996779999999800px;font-style:normal;font-weight:normal;line-height:125%;letter-spacing:0px;word-spacing:0px;fill:#ffffff;fill-opacity:1;stroke:none;font-family:Bitstream Vera Sans"
       x="148.26852"
       y="258.84155"
       id="text3770"
       sodipodi:linespacing="125%"><tspan
         sodipodi:role="line"
         id="tspan3772"
         x="148.26852"
         y="258.84155"
         style="font-style:normal;font-variant:normal;font-weight:normal;font-stretch:normal;letter-spacing:-2.5px;fill:#ffffff;font-family:Open Sans;-inkscape-font-specification:Open Sans"
         dy="0 0 0 0 0 -4.1919019e-008"
         dx="0">ghinda</tspan></text>
  </g>
</svg>
