<?xml version="1.0" encoding="UTF-8" standalone="no"?>
<!-- Created with Inkscape (http://www.inkscape.org/) -->

<svg
   xmlns:dc="http://purl.org/dc/elements/1.1/"
   xmlns:cc="http://creativecommons.org/ns#"
   xmlns:rdf="http://www.w3.org/1999/02/22-rdf-syntax-ns#"
   xmlns:svg="http://www.w3.org/2000/svg"
   xmlns="http://www.w3.org/2000/svg"
   xmlns:sodipodi="http://sodipodi.sourceforge.net/DTD/sodipodi-0.dtd"
   xmlns:inkscape="http://www.inkscape.org/namespaces/inkscape"
   width="590"
   height="242"
   id="svg3068"
   version="1.1"
   inkscape:version="0.48.4 r9939"
   sodipodi:docname="envato-header.svg"
   inkscape:export-filename="/media/Mokush/Dev/envato-header.png"
   inkscape:export-xdpi="90"
   inkscape:export-ydpi="90">
  <defs
     id="defs3070" />
  <sodipodi:namedview
     id="base"
     pagecolor="#e6894c"
     bordercolor="#666666"
     borderopacity="1.0"
     inkscape:pageopacity="1"
     inkscape:pageshadow="2"
     inkscape:zoom="1.4"
     inkscape:cx="307.37163"
     inkscape:cy="119.17711"
     inkscape:document-units="px"
     inkscape:current-layer="layer1"
     showgrid="false"
     inkscape:window-width="1234"
     inkscape:window-height="800"
     inkscape:window-x="46"
     inkscape:window-y="0"
     inkscape:window-maximized="1"
     fit-margin-top="1"
     fit-margin-left="1"
     fit-margin-right="1"
     fit-margin-bottom="1" />
  <metadata
     id="metadata3073">
    <rdf:RDF>
      <cc:Work
         rdf:about="">
        <dc:format>image/svg+xml</dc:format>
        <dc:type
           rdf:resource="http://purl.org/dc/dcmitype/StillImage" />
        <dc:title></dc:title>
      </cc:Work>
    </rdf:RDF>
  </metadata>
  <g
     inkscape:label="Layer 1"
     inkscape:groupmode="layer"
     id="layer1"
     transform="translate(-117.75449,-26.972852)">
    <g
       id="g3754"
       transform="translate(86.930681,17.407498)">
      <path
         inkscape:connector-curvature="0"
         id="path4033"
         d="m 220.98618,96.227067 -0.93036,3.446829 c -0.73,0.100625 -1.44554,0.223953 -2.15047,0.396544 l -0.79308,2.25723 c -1.05428,0.33501 -2.06716,0.7493 -3.03504,1.25062 l -2.15049,-1.02184 c -2.9469,1.78918 -5.42539,4.26665 -7.21396,7.21396 l 1.02184,2.15047 c -0.50155,0.96764 -1.26586,3.03505 -1.26586,3.03505 l 37.07644,0 c 0,0 -0.75102,-2.05492 -1.2506,-3.01979 l 0,-0.0144 1.02183,-2.15049 c -1.78854,-2.94728 -4.26707,-5.42478 -7.21395,-7.21394 l -2.16572,1.02181 c -0.96766,-0.50129 -1.98095,-0.9156 -3.03505,-1.2506 l -0.79309,-2.25723 c -0.83253,-0.20384 -1.67994,-0.339236 -2.547,-0.442293 l -0.91507,-3.401075 -3.66037,0 z m -6.2684,20.254023 c -6.04832,0.0127 -6.32281,0.0633 -6.61918,0.24404 -0.73826,0.45016 -0.80363,0.74638 -0.94558,4.10265 -0.19937,4.71498 -0.19962,11.52017 0,12.49101 0.40061,1.94935 1.39134,4.26095 2.57752,6.03957 0.79832,1.19707 3.02336,3.47017 4.08741,4.17892 0.41719,0.2779 1.55828,0.96318 2.53175,1.50992 0.97343,0.5467 2.84719,1.62364 4.16366,2.40973 2.18194,1.30287 2.4156,1.42152 2.65376,1.26586 0.79845,-0.5217 4.28428,-2.58179 5.81085,-3.43159 2.82095,-1.57029 4.40122,-2.71861 5.79557,-4.22463 1.83511,-1.98216 3.26596,-4.95752 3.82814,-7.94607 0.18289,-0.9723 0.19475,-1.9272 0.13723,-7.74778 -0.0588,-5.95983 -0.23268,-6.34872 -0.41177,-7.47324 -0.0384,-0.24076 -0.26829,-0.61994 -0.54906,-0.91509 l -0.47282,-0.5033 -14.39741,0 c -3.51484,1.1e-4 -6.17398,-0.003 -8.19009,0 z"
         style="fill:#ffffff;fill-opacity:1" />
      <text
         sodipodi:linespacing="125%"
         id="text3770"
         y="148.43716"
         x="256.02408"
         style="font-size:68.54338074px;font-style:normal;font-weight:normal;line-height:125%;letter-spacing:0px;word-spacing:0px;fill:#ffffff;fill-opacity:1;stroke:none;font-family:Bitstream Vera Sans"
         xml:space="preserve"><tspan
           dx="0"
           dy="0 0 0 0 0 -7.5592567e-08"
           style="font-style:normal;font-variant:normal;font-weight:normal;font-stretch:normal;letter-spacing:-4.50825024px;fill:#ffffff;font-family:Open Sans;-inkscape-font-specification:Open Sans"
           y="148.43716"
           x="256.02408"
           id="tspan3772"
           sodipodi:role="line">ghinda</tspan></text>
    </g>
  </g>
</svg>
