<svg xmlns="http://www.w3.org/2000/svg" width="20.56" height="28.606"><path d="M9.16 0l-.516 1.91c-.405.057-.802.126-1.193.22l-.44 1.253c-.583.186-1.145.416-1.682.694L4.136 3.51c-1.634.992-3.01 2.366-4 4L.7 8.703C.424 9.24 0 10.428 0 10.428h20.56s-.416-1.182-.693-1.717v-.007l.566-1.192c-.99-1.634-2.366-3.007-4-4l-1.2.567c-.538-.278-1.1-.508-1.684-.694l-.44-1.25c-.462-.114-.932-.19-1.413-.247L11.19 0H9.16zM1.555 11.628s.012.14-.066 2c-.112 2.615-.112 5.868 0 6.406.22 1.08.77 2.363 1.428 3.35.443.663 1.676 1.924 2.266 2.317.232.155.865.535 1.404.838.54.303 1.58.9 2.31 1.337 1.21.722 1.34.788 1.47.702.444-.29 2.377-1.432 3.223-1.903 1.566-.87 2.442-1.508 3.215-2.343 1.018-1.098 1.81-2.748 2.123-4.406.1-.54.108-1.068.076-4.296-.032-3.305-.108-4-.108-4z" fill="#333"/></svg>