<?xml version="1.0" encoding="UTF-8" standalone="no"?>
<!-- Created with Inkscape (http://www.inkscape.org/) -->

<svg
   xmlns:dc="http://purl.org/dc/elements/1.1/"
   xmlns:cc="http://creativecommons.org/ns#"
   xmlns:rdf="http://www.w3.org/1999/02/22-rdf-syntax-ns#"
   xmlns:svg="http://www.w3.org/2000/svg"
   xmlns="http://www.w3.org/2000/svg"
   xmlns:sodipodi="http://sodipodi.sourceforge.net/DTD/sodipodi-0.dtd"
   xmlns:inkscape="http://www.inkscape.org/namespaces/inkscape"
   width="40"
   height="40"
   id="svg3068"
   version="1.1"
   inkscape:version="0.48.4 r9939"
   sodipodi:docname="ghinda-logo.svg"
   inkscape:export-filename="/media/Mokush/Dev/ghinda.github.com/_artwork/favicon.png"
   inkscape:export-xdpi="1152"
   inkscape:export-ydpi="1152">
  <defs
     id="defs3070" />
  <sodipodi:namedview
     id="base"
     pagecolor="#ff9859"
     bordercolor="#666666"
     borderopacity="1.0"
     inkscape:pageopacity="0"
     inkscape:pageshadow="2"
     inkscape:zoom="7.9195959"
     inkscape:cx="11.67949"
     inkscape:cy="16.346757"
     inkscape:document-units="px"
     inkscape:current-layer="layer1"
     showgrid="true"
     inkscape:window-width="1233"
     inkscape:window-height="800"
     inkscape:window-x="47"
     inkscape:window-y="0"
     inkscape:window-maximized="1"
     fit-margin-top="1"
     fit-margin-left="1"
     fit-margin-right="1"
     fit-margin-bottom="1"
     inkscape:snap-bbox="true">
    <inkscape:grid
       type="xygrid"
       id="grid2986"
       empspacing="5"
       visible="true"
       enabled="true"
       snapvisiblegridlinesonly="true" />
  </sodipodi:namedview>
  <metadata
     id="metadata3073">
    <rdf:RDF>
      <cc:Work
         rdf:about="">
        <dc:format>image/svg+xml</dc:format>
        <dc:type
           rdf:resource="http://purl.org/dc/dcmitype/StillImage" />
        <dc:title></dc:title>
      </cc:Work>
    </rdf:RDF>
  </metadata>
  <g
     inkscape:label="Layer 1"
     inkscape:groupmode="layer"
     id="layer1"
     transform="translate(-117.75449,-228.97285)">
    <rect
       style="fill:#ff8080;fill-opacity:0.8;stroke:none"
       id="rect3776"
       width="39.999996"
       height="39.999996"
       x="74.754494"
       y="228.97285" />
    <path
       sodipodi:type="arc"
       style="fill:#ad3c00;fill-opacity:1;stroke:none"
       id="path2988"
       sodipodi:cx="17.5"
       sodipodi:cy="22.5"
       sodipodi:rx="17.5"
       sodipodi:ry="17.5"
       d="m 35,22.5 a 17.5,17.5 0 1 1 -35,0 17.5,17.5 0 1 1 35,0 z"
       transform="matrix(1.0857143,0,0,1.0857143,118.75449,224.54428)" />
    <path
       style="fill:#ffffff;fill-opacity:1"
       d="m 136.63388,234.4026 -0.51592,1.9114 c -0.40481,0.0558 -0.80163,0.12419 -1.19252,0.2199 l -0.43979,1.25172 c -0.58464,0.18578 -1.14632,0.41552 -1.68305,0.69352 l -1.19253,-0.56665 c -1.63418,0.99217 -3.00859,2.36602 -4.00042,4.00042 l 0.56663,1.19252 c -0.27811,0.53659 -0.70195,1.68305 -0.70195,1.68305 l 20.56033,0 c 0,0 -0.41649,-1.13953 -0.69353,-1.67459 l 0,-0.008 0.56666,-1.19253 c -0.99181,-1.63438 -2.36627,-3.00825 -4.00041,-4.00041 l -1.20098,0.56664 c -0.5366,-0.27799 -1.09851,-0.50774 -1.68305,-0.69351 l -0.4398,-1.25172 c -0.46167,-0.11304 -0.93159,-0.18812 -1.41241,-0.24527 l -0.50744,-1.88603 -2.02982,0 z m -3.47607,11.23164 c -3.35403,0.007 -3.50625,0.0351 -3.67059,0.13533 -0.4094,0.24963 -0.44565,0.4139 -0.52436,2.27508 -0.11056,2.61464 -0.11071,6.38838 0,6.92675 0.22215,1.08099 0.77154,2.36286 1.42931,3.34918 0.44272,0.66382 1.67657,1.92434 2.26663,2.31737 0.23136,0.15411 0.86414,0.53412 1.40397,0.83731 0.5398,0.30317 1.57886,0.90037 2.30889,1.33629 1.20998,0.72249 1.33957,0.78829 1.47162,0.70197 0.44277,-0.28931 2.3758,-1.43171 3.22236,-1.90295 1.56433,-0.87079 2.44065,-1.50758 3.21387,-2.34273 1.01764,-1.09918 1.8111,-2.74913 2.12285,-4.4064 0.10142,-0.53918 0.108,-1.06871 0.0761,-4.29644 -0.0326,-3.30496 -0.12903,-3.52062 -0.22834,-4.14421 -0.0213,-0.1335 -0.14878,-0.34378 -0.30449,-0.50745 l -0.26219,-0.2791 -7.98392,0 c -1.94912,6e-5 -3.42371,-0.002 -4.54172,0 z"
       id="path4033"
       inkscape:connector-curvature="0" />
  </g>
</svg>
