<?xml version="1.0" encoding="UTF-8" standalone="no"?>
<!-- Created with Inkscape (http://www.inkscape.org/) -->

<svg
   xmlns:dc="http://purl.org/dc/elements/1.1/"
   xmlns:cc="http://creativecommons.org/ns#"
   xmlns:rdf="http://www.w3.org/1999/02/22-rdf-syntax-ns#"
   xmlns:svg="http://www.w3.org/2000/svg"
   xmlns="http://www.w3.org/2000/svg"
   xmlns:sodipodi="http://sodipodi.sourceforge.net/DTD/sodipodi-0.dtd"
   xmlns:inkscape="http://www.inkscape.org/namespaces/inkscape"
   width="40"
   height="40"
   id="svg3068"
   version="1.1"
   inkscape:version="0.48.4 r9939"
   sodipodi:docname="twitter-avatar.svg"
   inkscape:export-filename="/media/Mokush/Dev/ghinda.github.com/_artwork/twitter-avatar.png"
   inkscape:export-xdpi="900"
   inkscape:export-ydpi="900">
  <defs
     id="defs3070" />
  <sodipodi:namedview
     id="base"
     pagecolor="#ad3c00"
     bordercolor="#666666"
     borderopacity="1.0"
     inkscape:pageopacity="1"
     inkscape:pageshadow="2"
     inkscape:zoom="7.9195959"
     inkscape:cx="22.53863"
     inkscape:cy="27.079628"
     inkscape:document-units="px"
     inkscape:current-layer="layer1"
     showgrid="true"
     inkscape:window-width="1233"
     inkscape:window-height="800"
     inkscape:window-x="47"
     inkscape:window-y="0"
     inkscape:window-maximized="1"
     fit-margin-top="1"
     fit-margin-left="1"
     fit-margin-right="1"
     fit-margin-bottom="1"
     inkscape:snap-bbox="true">
    <inkscape:grid
       type="xygrid"
       id="grid2986"
       empspacing="5"
       visible="true"
       enabled="true"
       snapvisiblegridlinesonly="true" />
  </sodipodi:namedview>
  <metadata
     id="metadata3073">
    <rdf:RDF>
      <cc:Work
         rdf:about="">
        <dc:format>image/svg+xml</dc:format>
        <dc:type
           rdf:resource="http://purl.org/dc/dcmitype/StillImage" />
        <dc:title></dc:title>
      </cc:Work>
    </rdf:RDF>
  </metadata>
  <g
     inkscape:label="Layer 1"
     inkscape:groupmode="layer"
     id="layer1"
     transform="translate(-117.75449,-228.97285)">
    <path
       style="fill:#ffffff;fill-opacity:1"
       d="m 136.97512,234.76702 -0.4878,1.80721 c -0.38274,0.0528 -0.75794,0.11742 -1.12752,0.20792 l -0.41582,1.18349 c -0.55277,0.17565 -1.08384,0.39287 -1.59131,0.65572 l -1.12753,-0.53576 c -1.54511,0.93809 -2.84461,2.23705 -3.78238,3.78237 l 0.53575,1.12752 c -0.26295,0.50734 -0.66369,1.59131 -0.66369,1.59131 l 19.43967,0 c 0,0 -0.39379,-1.07742 -0.65573,-1.58331 l 0,-0.008 0.53578,-1.12753 c -0.93776,-1.54529 -2.2373,-2.84428 -3.78237,-3.78236 l -1.13552,0.53576 c -0.50735,-0.26284 -1.03863,-0.48007 -1.59131,-0.65571 l -0.41583,-1.1835 c -0.43651,-0.10688 -0.88081,-0.17786 -1.33543,-0.2319 l -0.47978,-1.78323 -1.91918,0 z m -3.2866,10.61944 c -3.17122,0.007 -3.31514,0.0332 -3.47052,0.12796 -0.38709,0.23602 -0.42136,0.39134 -0.49578,2.15107 -0.10454,2.47213 -0.10468,6.04018 0,6.5492 0.21004,1.02207 0.72948,2.23407 1.3514,3.16663 0.41859,0.62764 1.58519,1.81946 2.14309,2.19106 0.21875,0.14571 0.81703,0.50501 1.32744,0.79167 0.51038,0.28665 1.4928,0.8513 2.18304,1.26346 1.14403,0.68311 1.26656,0.74532 1.39141,0.66371 0.41864,-0.27354 2.24631,-1.35368 3.04672,-1.79923 1.47907,-0.82333 2.30762,-1.42541 3.0387,-2.21504 0.96217,-1.03927 1.71238,-2.59928 2.00714,-4.16622 0.0959,-0.50979 0.10211,-1.01046 0.0719,-4.06226 -0.0308,-3.12482 -0.12199,-3.32873 -0.21589,-3.91833 -0.0201,-0.12622 -0.14067,-0.32504 -0.2879,-0.47979 l -0.24789,-0.26389 -7.54875,0 c -1.84288,6e-5 -3.2371,-0.002 -4.29417,0 z"
       id="path4033"
       inkscape:connector-curvature="0" />
  </g>
</svg>
