<?xml version="1.0" encoding="UTF-8" standalone="no"?>
<!-- Created with Inkscape (http://www.inkscape.org/) -->

<svg
   width="245.00011"
   height="45"
   viewBox="0 0 64.822944 11.90625"
   version="1.1"
   id="svg3826"
   inkscape:version="1.3.2 (091e20ef0f, 2023-11-25, custom)"
   sodipodi:docname="briskine-combo.svg"
   inkscape:export-filename="briskine-combo-2.png"
   inkscape:export-xdpi="68.26667"
   inkscape:export-ydpi="68.26667"
   xmlns:inkscape="http://www.inkscape.org/namespaces/inkscape"
   xmlns:sodipodi="http://sodipodi.sourceforge.net/DTD/sodipodi-0.dtd"
   xmlns="http://www.w3.org/2000/svg"
   xmlns:svg="http://www.w3.org/2000/svg">
  <sodipodi:namedview
     id="namedview3828"
     pagecolor="#ffffff"
     bordercolor="#666666"
     borderopacity="1.0"
     inkscape:showpageshadow="2"
     inkscape:pageopacity="0.0"
     inkscape:pagecheckerboard="0"
     inkscape:deskcolor="#d1d1d1"
     inkscape:document-units="px"
     showgrid="true"
     inkscape:zoom="2.8284271"
     inkscape:cx="124.45079"
     inkscape:cy="70.357125"
     inkscape:window-width="1876"
     inkscape:window-height="1052"
     inkscape:window-x="0"
     inkscape:window-y="0"
     inkscape:window-maximized="1"
     inkscape:current-layer="layer1">
    <inkscape:grid
       type="xygrid"
       id="grid5184"
       originx="0"
       originy="1.0132449e-07"
       spacingy="1"
       spacingx="1"
       units="px"
       visible="true" />
  </sodipodi:namedview>
  <defs
     id="defs3823" />
  <g
     inkscape:label="Layer 1"
     inkscape:groupmode="layer"
     id="layer1"
     transform="translate(-13.897214,-86.79544)">
    <path
       d="m 34.842929,94.68819 c 0,0.86668 -0.607968,1.37117 -1.604002,1.37117 H 31.24686 v -2.80701 h 1.940325 c 0.983098,0 1.655744,0.54329 1.655744,1.43584 z M 34.61009,90.76874 c 0,0.82787 -0.582097,1.28061 -1.539324,1.28061 H 31.24686 v -2.57416 h 1.823906 c 0.957227,0 1.539324,0.47861 1.539324,1.29355 z m 1.707486,4.07468 c 0,-1.07365 -0.77613,-2.03087 -1.733357,-2.19904 0.866679,-0.31045 1.526389,-0.97016 1.526389,-2.05674 0,-1.26768 -1.008969,-2.31546 -2.910487,-2.31546 h -3.427908 v 8.99018 h 3.596069 c 1.836841,0 2.949294,-1.04778 2.949294,-2.41894 z"
       id="path4640"
       style="font-weight:500;font-size:12.9355px;line-height:1.25;font-family:Poppins;-inkscape-font-specification:'Poppins Medium';fill:#0d7af6;stroke-width:0;stroke:none;stroke-dasharray:none" />
    <path
       d="m 39.396214,93.51106 c 0,-1.51345 0.672646,-1.96619 1.759228,-1.96619 h 0.37513 v -1.52639 c -1.008969,0 -1.720422,0.4398 -2.134358,1.15126 V 90.1349 h -1.474647 v 7.12746 h 1.474647 z"
       id="path4642"
       style="font-weight:500;font-size:12.9355px;line-height:1.25;font-family:Poppins;-inkscape-font-specification:'Poppins Medium';fill:#0d7af6;stroke-width:0;stroke:none;stroke-dasharray:none" />
    <path
       d="m 42.888809,97.26236 h 1.474647 V 90.1349 h -1.474647 z m 0.750259,-8.07175 c 0.51742,0 0.931356,-0.41394 0.931356,-0.9443 0,-0.53035 -0.413936,-0.94429 -0.931356,-0.94429 -0.530355,0 -0.944291,0.41394 -0.944291,0.94429 0,0.53036 0.413936,0.9443 0.944291,0.9443 z"
       id="path4644"
       style="font-weight:500;font-size:12.9355px;line-height:1.25;font-family:Poppins;-inkscape-font-specification:'Poppins Medium';fill:#0d7af6;stroke-width:0;stroke:none;stroke-dasharray:none" />
    <path
       d="m 51.62027,95.27029 c -0.07761,-2.57416 -4.100553,-1.77216 -4.100553,-3.208 0,-0.47862 0.413936,-0.802 1.203001,-0.802 0.802001,0 1.280615,0.42687 1.332357,1.04777 h 1.474647 c -0.07761,-1.4229 -1.138324,-2.28958 -2.755262,-2.28958 -1.681615,0 -2.742326,0.91842 -2.742326,2.05674 0,2.61297 4.13936,1.81097 4.13936,3.20801 0,0.49154 -0.452742,0.85374 -1.306485,0.85374 -0.814937,0 -1.371163,-0.47861 -1.422905,-1.06071 h -1.526389 c 0.06468,1.29355 1.267679,2.30252 2.975165,2.30252 1.681615,0 2.72939,-0.90549 2.72939,-2.10849 z"
       id="path4646"
       style="font-weight:500;font-size:12.9355px;line-height:1.25;font-family:Poppins;-inkscape-font-specification:'Poppins Medium';fill:#0d7af6;stroke-width:0;stroke:none;stroke-dasharray:none" />
    <path
       d="m 53.211342,97.26236 h 1.474647 v -3.06572 l 2.638842,3.06572 h 1.992067 l -3.285617,-3.55727 3.285617,-3.57019 h -2.043809 l -2.5871,3.11745 v -5.56226 h -1.474647 z"
       id="path4648"
       style="font-weight:500;font-size:12.9355px;line-height:1.25;font-family:Poppins;-inkscape-font-specification:'Poppins Medium';fill:#0d7af6;stroke-width:0;stroke:none;stroke-dasharray:none" />
    <path
       d="m 60.377621,97.26236 h 1.474647 V 90.1349 h -1.474647 z m 0.750259,-8.07175 c 0.51742,0 0.931356,-0.41394 0.931356,-0.9443 0,-0.53035 -0.413936,-0.94429 -0.931356,-0.94429 -0.530356,0 -0.944292,0.41394 -0.944292,0.94429 0,0.53036 0.413936,0.9443 0.944292,0.9443 z"
       id="path4650"
       style="font-weight:500;font-size:12.9355px;line-height:1.25;font-family:Poppins;-inkscape-font-specification:'Poppins Medium';fill:#0d7af6;stroke-width:0;stroke:none;stroke-dasharray:none" />
    <path
       d="m 68.850372,97.26236 h 1.461711 v -4.20404 c 0,-1.99207 -1.254743,-3.03984 -2.923423,-3.03984 -0.853743,0 -1.642808,0.34926 -2.121422,0.93135 V 90.1349 h -1.474647 v 7.12746 h 1.474647 v -3.98414 c 0,-1.30648 0.711453,-1.97913 1.798035,-1.97913 1.073646,0 1.785099,0.67265 1.785099,1.97913 z"
       id="path4652"
       style="font-weight:500;font-size:12.9355px;line-height:1.25;font-family:Poppins;-inkscape-font-specification:'Poppins Medium';fill:#0d7af6;stroke-width:0;stroke:none;stroke-dasharray:none" />
    <path
       d="m 75.188769,91.26029 c 1.099517,0 1.966196,0.69851 1.992067,1.79803 h -3.945328 c 0.155226,-1.12539 0.957227,-1.79803 1.953261,-1.79803 z m 3.337359,3.88065 h -1.591067 c -0.271645,0.55622 -0.77613,0.99603 -1.681615,0.99603 -1.086582,0 -1.927389,-0.71145 -2.030873,-1.88858 h 5.445845 c 0.03881,-0.24578 0.05174,-0.47862 0.05174,-0.72439 0,-2.09555 -1.43584,-3.50552 -3.466714,-3.50552 -2.108486,0 -3.557262,1.43584 -3.557262,3.67368 0,2.23784 1.513453,3.68662 3.557262,3.68662 1.746293,0 2.871681,-0.99604 3.272682,-2.23784 z"
       id="path4654"
       style="font-weight:500;font-size:12.9355px;line-height:1.25;font-family:Poppins;-inkscape-font-specification:'Poppins Medium';fill:#0d7af6;stroke-width:0;stroke:none;stroke-dasharray:none" />
    <rect
       style="fill:#f9f9f9;stroke-width:0.2"
       id="rect1"
       width="9.6779661"
       height="6.1948743"
       x="14.897214"
       y="89.697998"
       inkscape:label="logo-white-bg" />
    <path
       id="path4636"
       style="display:inline;fill:#0d7af6;fill-opacity:1;stroke-width:0;stroke-miterlimit:10;stroke:none;stroke-dasharray:none"
       d="m 15.293531,86.79544 c -0.773511,0 -1.396317,0.6228 -1.396317,1.39632 v 9.12198 c 0,0.77351 0.622806,1.39632 1.396317,1.39632 h 9.121981 c 0.77351,0 1.396318,-0.62281 1.396318,-1.39632 v -9.12198 c 0,-0.77352 -0.622808,-1.39632 -1.396318,-1.39632 z m 2.426099,3.30342 h 2.889238 c 1.685371,0 2.04649,0.82846 0.842653,2.48541 l -0.2006,0.27617 c -0.200641,0.27616 -0.641975,0.55235 -0.882741,0.55235 h -4.815397 c -0.240766,0 -0.24085,-0.33142 -0.08034,-0.55235 l 1.805731,-2.48541 c 0.120384,-0.1657 0.296994,-0.27617 0.441453,-0.27617 z m 1.339964,0.38706 c -0.0029,2e-5 -0.0056,1.2e-4 -0.0085,3.3e-4 -0.08206,0.007 -0.164939,0.0955 -0.123218,0.20224 l 0.283403,0.72436 c -0.05852,-0.001 -0.101367,0 -0.101367,0 h -1.722929 c -0.07005,0 -0.127327,0.0636 -0.127327,0.14129 0,0.0777 0.05726,0.14064 0.127327,0.14064 h 1.599874 l -0.941722,0.61429 c -0.146749,0.1023 -0.01696,0.33708 0.129791,0.23477 l 1.249933,-0.83673 c 0,0 0.0293,-0.0199 0.05585,-0.0391 0.02219,-0.0161 0.04469,-0.0362 0.04469,-0.0362 0.01927,-0.0215 0.0275,-0.0841 0.0065,-0.1357 l -5.09e-4,-0.002 c -9e-4,-0.002 -0.0016,-0.004 -0.0026,-0.007 l -0.362593,-0.92316 c -0.02194,-0.0561 -0.06358,-0.0796 -0.106626,-0.0793 z m 1.579668,0.0203 a 0.1452944,0.16022149 32.131852 0 0 -0.133076,0.0835 l -1.133451,1.9352 a 0.14529666,0.160224 32.131869 0 0 0.251696,0.14523 l 1.133614,-1.93536 a 0.1452944,0.16022149 32.131852 0 0 -0.04502,-0.21079 0.1452944,0.16022149 32.131852 0 0 -0.07377,-0.0177 z m 1.775996,1.77092 h 1.740837 c 0.255074,0 0.283558,0.2462 0.06391,0.55217 l -1.58591,2.20924 c -0.219647,0.30598 -0.601872,0.55235 -0.856947,0.55235 h -6.215656 c -0.255072,0 -0.283721,-0.24637 -0.06408,-0.55235 l 0.396601,-0.55218 h 4.713207 c 0.24531,0 0.695075,-0.2762 0.899498,-0.55236 l 0.204378,-0.27617 c 0.40886,-0.55232 0.640563,-1.0125 0.704155,-1.3807 z"
       inkscape:label="logo-cutout" />
  </g>
</svg>
