<?xml version="1.0" encoding="UTF-8" standalone="no"?>
<!-- Created with Inkscape (http://www.inkscape.org/) -->

<svg
   xmlns:dc="http://purl.org/dc/elements/1.1/"
   xmlns:cc="http://creativecommons.org/ns#"
   xmlns:rdf="http://www.w3.org/1999/02/22-rdf-syntax-ns#"
   xmlns:svg="http://www.w3.org/2000/svg"
   xmlns="http://www.w3.org/2000/svg"
   xmlns:sodipodi="http://sodipodi.sourceforge.net/DTD/sodipodi-0.dtd"
   xmlns:inkscape="http://www.inkscape.org/namespaces/inkscape"
   version="1.1"
   width="21.6875"
   height="29.408438"
   id="svg2997"
   inkscape:version="0.48.4 r9939"
   sodipodi:docname="ghinda-logo.svg">
  <sodipodi:namedview
     pagecolor="#ffffff"
     bordercolor="#666666"
     borderopacity="1"
     objecttolerance="10"
     gridtolerance="10"
     guidetolerance="10"
     inkscape:pageopacity="0"
     inkscape:pageshadow="2"
     inkscape:window-width="1319"
     inkscape:window-height="768"
     id="namedview7"
     showgrid="true"
     inkscape:zoom="16.197387"
     inkscape:cx="9.3610553"
     inkscape:cy="11.260508"
     inkscape:window-x="47"
     inkscape:window-y="0"
     inkscape:window-maximized="1"
     inkscape:current-layer="svg2997"
     fit-margin-top="0"
     fit-margin-left="0"
     fit-margin-right="0"
     fit-margin-bottom="0">
    <inkscape:grid
       type="xygrid"
       id="grid3750"
       empspacing="5"
       visible="true"
       enabled="true"
       snapvisiblegridlinesonly="true"
       originx="-0.15625px"
       originy="-0.62586027px" />
  </sodipodi:namedview>
  <defs
     id="defs2999" />
  <metadata
     id="metadata3002">
    <rdf:RDF>
      <cc:Work
         rdf:about="">
        <dc:format>image/svg+xml</dc:format>
        <dc:type
           rdf:resource="http://purl.org/dc/dcmitype/StillImage" />
        <dc:title />
      </cc:Work>
    </rdf:RDF>
  </metadata>
  <path
     inkscape:connector-curvature="0"
     style="fill:#ffffff;fill-opacity:1;stroke:#ad3c00;stroke-width:0.80000001;stroke-miterlimit:4;stroke-opacity:1;stroke-dasharray:none"
     id="path4033"
     d="M 9.72206,0.40625 9.20613,2.31765 C 8.80132,2.37345 8.40452,2.44184 8.01361,2.53755 L 7.57382,3.78927 C 6.98918,3.97505 6.4275,4.20479 5.89077,4.48279 L 4.69824,3.91614 C 3.06407,4.90831 1.68965,6.28216 0.69782,7.91656 L 1.26447,9.10908 C 0.98634,9.64567 0.5625,10.79213 0.5625,10.79213 l 20.56033,0 c 0,0 -0.41647,-1.13953 -0.69351,-1.67459 l 0,-0.008 0.56665,-1.19253 C 20.00415,6.28263 18.62971,4.90876 16.99555,3.9166 L 15.79457,4.48324 C 15.25797,4.20525 14.69606,3.9755 14.11152,3.78973 L 13.67172,2.53801 C 13.21006,2.42497 12.74013,2.34989 12.25932,2.29274 l -0.50745,-1.88603 -2.02981,0 z M 6.24598,11.103536 c -3.35403,0.007 -3.50624,0.0351 -3.67058,0.13533 -0.40941,0.24963 -0.44565,0.4139 -0.52436,2.27508 -0.11057,2.61464 -0.11071,6.38838 0,6.92675 0.22215,1.08099 0.77154,2.36286 1.42932,3.34918 0.4427,0.66382 1.67657,1.92434 2.26663,2.31737 0.23135,0.15411 0.86414,0.53412 1.40395,0.83731 0.53981,0.30317 1.57888,0.90037 2.30891,1.33629 1.20998,0.72249 1.33955,0.78829 1.47162,0.70197 0.44277,-0.28931 2.3758,-1.43171 3.22234,-1.90295 1.56433,-0.87079 2.44066,-1.50758 3.21387,-2.34273 1.01764,-1.09918 1.8111,-2.74913 2.12285,-4.4064 0.10142,-0.53918 0.108,-1.06871 0.0761,-4.29644 -0.0326,-3.30496 -0.12903,-3.52062 -0.22833,-4.14421 -0.0213,-0.1335 -0.14879,-0.34378 -0.30449,-0.50745 l -0.26219,-0.2791 -7.98393,0 c -1.94911,6e-5 -3.42371,-0.002 -4.54172,0 z"
     sodipodi:nodetypes="cccccccccccccccccccccccscsccccsssccccccc" />
</svg>
