<?xml version="1.0" encoding="UTF-8" standalone="no"?>
<!-- Created with Inkscape (http://www.inkscape.org/) -->

<svg
   xmlns:dc="http://purl.org/dc/elements/1.1/"
   xmlns:cc="http://creativecommons.org/ns#"
   xmlns:rdf="http://www.w3.org/1999/02/22-rdf-syntax-ns#"
   xmlns:svg="http://www.w3.org/2000/svg"
   xmlns="http://www.w3.org/2000/svg"
   xmlns:sodipodi="http://sodipodi.sourceforge.net/DTD/sodipodi-0.dtd"
   xmlns:inkscape="http://www.inkscape.org/namespaces/inkscape"
   version="1.1"
   width="20.560329"
   height="28.60615"
   id="svg2997"
   inkscape:version="0.48.4 r9939"
   sodipodi:docname="ghinda-logo.svg">
  <sodipodi:namedview
     pagecolor="#ffffff"
     bordercolor="#666666"
     borderopacity="1"
     objecttolerance="10"
     gridtolerance="10"
     guidetolerance="10"
     inkscape:pageopacity="0"
     inkscape:pageshadow="2"
     inkscape:window-width="1319"
     inkscape:window-height="768"
     id="namedview7"
     showgrid="true"
     inkscape:zoom="11.313709"
     inkscape:cx="24.682717"
     inkscape:cy="11.453336"
     inkscape:window-x="47"
     inkscape:window-y="16"
     inkscape:window-maximized="1"
     inkscape:current-layer="svg2997"
     fit-margin-top="0"
     fit-margin-left="0"
     fit-margin-right="0"
     fit-margin-bottom="0">
    <inkscape:grid
       type="xygrid"
       id="grid3750"
       empspacing="5"
       visible="true"
       enabled="true"
       snapvisiblegridlinesonly="true"
       originx="-0.71875px"
       originy="-1.0218986px"
       spacingx="0.4px"
       spacingy="0.4px" />
  </sodipodi:namedview>
  <defs
     id="defs2999" />
  <metadata
     id="metadata3002">
    <rdf:RDF>
      <cc:Work
         rdf:about="">
        <dc:format>image/svg+xml</dc:format>
        <dc:type
           rdf:resource="http://purl.org/dc/dcmitype/StillImage" />
        <dc:title />
      </cc:Work>
    </rdf:RDF>
  </metadata>
  <path
     inkscape:connector-curvature="0"
     style="fill:#333333;fill-opacity:1;stroke:none"
     id="logoPath"
     d="M 9.15956,0 8.64363,1.9114 C 8.23882,1.9672 7.84202,2.03559 7.45111,2.1313 L 7.01132,3.38302 C 6.42668,3.5688 5.865,3.79854 5.32827,4.07654 L 4.13574,3.50989 C 2.50157,4.50206 1.12715,5.87591 0.13532,7.51031 L 0.70197,8.70283 C 0.42384,9.23942 0,10.428048 0,10.428048 l 20.56033,0 c 0,0 -0.41647,-1.181698 -0.69351,-1.716758 l 0,-0.008 0.56665,-1.19253 C 19.44165,5.87638 18.06721,4.50251 16.43305,3.51035 L 15.23207,4.07699 C 14.69547,3.799 14.13356,3.56925 13.54902,3.38348 L 13.10922,2.13176 C 12.64756,2.01872 12.17763,1.94364 11.69682,1.88649 l -0.50745,-1.88603 -2.02981,0 z M 1.5545161,11.628048 c 0,0 0.012734,0.13882 -0.065976,2 -0.11057,2.61464 -0.11071,5.868028 0,6.406398 0.22215,1.08099 0.77154,2.36286 1.42932,3.34918 0.4427,0.66382 1.67657,1.92434 2.26663,2.31737 0.23135,0.15411 0.86414,0.53412 1.40395,0.83731 0.53981,0.30317 1.57888,0.90037 2.30891,1.33629 1.2099799,0.72249 1.3395499,0.78829 1.4716199,0.70197 0.44277,-0.28931 2.3758,-1.43171 3.22234,-1.90295 1.56433,-0.87079 2.44066,-1.50758 3.21387,-2.34273 1.01764,-1.09918 1.8111,-2.74913 2.12285,-4.4064 0.10142,-0.53918 0.108,-1.068708 0.0761,-4.296438 -0.0326,-3.30496 -0.108277,-4 -0.108277,-4 z"
     sodipodi:nodetypes="ccccccccccccccccccccccscsccccsssccc" />
</svg>
