<?xml version="1.0" encoding="UTF-8" standalone="no"?>
<!-- Created with Inkscape (http://www.inkscape.org/) -->

<svg
   xmlns:dc="http://purl.org/dc/elements/1.1/"
   xmlns:cc="http://creativecommons.org/ns#"
   xmlns:rdf="http://www.w3.org/1999/02/22-rdf-syntax-ns#"
   xmlns:svg="http://www.w3.org/2000/svg"
   xmlns="http://www.w3.org/2000/svg"
   version="1.1"
   width="20.560329"
   height="29.140503"
   id="svg2997">
  <defs
     id="defs2999" />
  <metadata
     id="metadata3002">
    <rdf:RDF>
      <cc:Work
         rdf:about="">
        <dc:format>image/svg+xml</dc:format>
        <dc:type
           rdf:resource="http://purl.org/dc/dcmitype/StillImage" />
        <dc:title></dc:title>
      </cc:Work>
    </rdf:RDF>
  </metadata>
  <g
     transform="translate(-364.71983,-517.79193)"
     id="layer1">
    <path
       d="m 373.87939,517.79193 -0.51593,1.9114 c -0.40481,0.0558 -0.80161,0.12419 -1.19252,0.2199 l -0.43979,1.25172 c -0.58464,0.18578 -1.14632,0.41552 -1.68305,0.69352 l -1.19253,-0.56665 c -1.63417,0.99217 -3.00859,2.36602 -4.00042,4.00042 l 0.56665,1.19252 c -0.27813,0.53659 -0.70197,1.68305 -0.70197,1.68305 l 20.56033,0 c 0,0 -0.41647,-1.13953 -0.69351,-1.67459 l 0,-0.008 0.56665,-1.19253 c -0.99182,-1.63438 -2.36626,-3.00825 -4.00042,-4.00041 l -1.20098,0.56664 c -0.5366,-0.27799 -1.09851,-0.50774 -1.68305,-0.69351 l -0.4398,-1.25172 c -0.46166,-0.11304 -0.93159,-0.18812 -1.4124,-0.24527 l -0.50745,-1.88603 -2.02981,0 z m -3.47608,11.23164 c -3.35403,0.007 -3.50624,0.0351 -3.67058,0.13533 -0.40941,0.24963 -0.44565,0.4139 -0.52436,2.27508 -0.11057,2.61464 -0.11071,6.38838 0,6.92675 0.22215,1.08099 0.77154,2.36286 1.42932,3.34918 0.4427,0.66382 1.67657,1.92434 2.26663,2.31737 0.23135,0.15411 0.86414,0.53412 1.40395,0.83731 0.53981,0.30317 1.57888,0.90037 2.30891,1.33629 1.20998,0.72249 1.33955,0.78829 1.47162,0.70197 0.44277,-0.28931 2.3758,-1.43171 3.22234,-1.90295 1.56433,-0.87079 2.44066,-1.50758 3.21387,-2.34273 1.01764,-1.09918 1.8111,-2.74913 2.12285,-4.4064 0.10142,-0.53918 0.108,-1.06871 0.0761,-4.29644 -0.0326,-3.30496 -0.12903,-3.52062 -0.22833,-4.14421 -0.0213,-0.1335 -0.14879,-0.34378 -0.30449,-0.50745 l -0.26219,-0.2791 -7.98393,0 c -1.94911,6e-5 -3.42371,-0.002 -4.54172,0 z"
       id="path4033"
       style="fill:#ffffff;fill-opacity:0.8627451" />
  </g>
</svg>
