<?xml version="1.0" encoding="UTF-8" standalone="no"?>
<!-- Created with Inkscape (http://www.inkscape.org/) -->

<svg
   xmlns:dc="http://purl.org/dc/elements/1.1/"
   xmlns:cc="http://creativecommons.org/ns#"
   xmlns:rdf="http://www.w3.org/1999/02/22-rdf-syntax-ns#"
   xmlns:svg="http://www.w3.org/2000/svg"
   xmlns="http://www.w3.org/2000/svg"
   xmlns:sodipodi="http://sodipodi.sourceforge.net/DTD/sodipodi-0.dtd"
   xmlns:inkscape="http://www.inkscape.org/namespaces/inkscape"
   version="1.1"
   width="20.560329"
   height="29.140503"
   id="svg2997"
   inkscape:version="0.48.4 r9939"
   sodipodi:docname="ghinda-logo.svg">
  <sodipodi:namedview
     pagecolor="#ffffff"
     bordercolor="#666666"
     borderopacity="1"
     objecttolerance="10"
     gridtolerance="10"
     guidetolerance="10"
     inkscape:pageopacity="0"
     inkscape:pageshadow="2"
     inkscape:window-width="1233"
     inkscape:window-height="800"
     id="namedview7"
     showgrid="false"
     inkscape:zoom="8.0986934"
     inkscape:cx="-11.019567"
     inkscape:cy="14.570251"
     inkscape:window-x="47"
     inkscape:window-y="0"
     inkscape:window-maximized="1"
     inkscape:current-layer="svg2997" />
  <defs
     id="defs2999" />
  <metadata
     id="metadata3002">
    <rdf:RDF>
      <cc:Work
         rdf:about="">
        <dc:format>image/svg+xml</dc:format>
        <dc:type
           rdf:resource="http://purl.org/dc/dcmitype/StillImage" />
        <dc:title />
      </cc:Work>
    </rdf:RDF>
  </metadata>
  <path
     inkscape:connector-curvature="0"
     style="fill:#ffffff;fill-opacity:1"
     id="path4033"
     d="M 9.15956,0 8.64363,1.9114 C 8.23882,1.9672 7.84202,2.03559 7.45111,2.1313 L 7.01132,3.38302 C 6.42668,3.5688 5.865,3.79854 5.32827,4.07654 L 4.13574,3.50989 C 2.50157,4.50206 1.12715,5.87591 0.13532,7.51031 L 0.70197,8.70283 C 0.42384,9.23942 0,10.38588 0,10.38588 l 20.56033,0 c 0,0 -0.41647,-1.13953 -0.69351,-1.67459 l 0,-0.008 0.56665,-1.19253 C 19.44165,5.87638 18.06721,4.50251 16.43305,3.51035 L 15.23207,4.07699 C 14.69547,3.799 14.13356,3.56925 13.54902,3.38348 L 13.10922,2.13176 C 12.64756,2.01872 12.17763,1.94364 11.69682,1.88649 l -0.50745,-1.88603 -2.02981,0 z M 5.68348,11.23164 c -3.35403,0.007 -3.50624,0.0351 -3.67058,0.13533 -0.40941,0.24963 -0.44565,0.4139 -0.52436,2.27508 -0.11057,2.61464 -0.11071,6.38838 0,6.92675 0.22215,1.08099 0.77154,2.36286 1.42932,3.34918 0.4427,0.66382 1.67657,1.92434 2.26663,2.31737 0.23135,0.15411 0.86414,0.53412 1.40395,0.83731 0.53981,0.30317 1.57888,0.90037 2.30891,1.33629 1.20998,0.72249 1.33955,0.78829 1.47162,0.70197 0.44277,-0.28931 2.3758,-1.43171 3.22234,-1.90295 1.56433,-0.87079 2.44066,-1.50758 3.21387,-2.34273 1.01764,-1.09918 1.8111,-2.74913 2.12285,-4.4064 0.10142,-0.53918 0.108,-1.06871 0.0761,-4.29644 -0.0326,-3.30496 -0.12903,-3.52062 -0.22833,-4.14421 -0.0213,-0.1335 -0.14879,-0.34378 -0.30449,-0.50745 l -0.26219,-0.2791 -7.98393,0 c -1.94911,6e-5 -3.42371,-0.002 -4.54172,0 z" />
</svg>
