<?xml version="1.0" encoding="UTF-8" standalone="no"?>
<!-- Created with Inkscape (http://www.inkscape.org/) -->

<svg
   xmlns:dc="http://purl.org/dc/elements/1.1/"
   xmlns:cc="http://creativecommons.org/ns#"
   xmlns:rdf="http://www.w3.org/1999/02/22-rdf-syntax-ns#"
   xmlns:svg="http://www.w3.org/2000/svg"
   xmlns="http://www.w3.org/2000/svg"
   xmlns:sodipodi="http://sodipodi.sourceforge.net/DTD/sodipodi-0.dtd"
   xmlns:inkscape="http://www.inkscape.org/namespaces/inkscape"
   width="569.12085"
   height="83.033646"
   id="svg3822"
   version="1.1"
   inkscape:version="0.92.4 5da689c313, 2019-01-14"
   sodipodi:docname="gorgias-templates-promo.svg"
   inkscape:export-filename="/home/mokush/dev/gorgias-chrome/artwork/gorgias-logo-full-white-transparent.png"
   inkscape:export-xdpi="113.38503"
   inkscape:export-ydpi="113.38503">
  <defs
     id="defs3824" />
  <sodipodi:namedview
     id="base"
     pagecolor="#ffffff"
     bordercolor="#666666"
     borderopacity="1.0"
     inkscape:pageopacity="0.0"
     inkscape:pageshadow="2"
     inkscape:zoom="0.98994949"
     inkscape:cx="284.22832"
     inkscape:cy="-12.45657"
     inkscape:document-units="px"
     inkscape:current-layer="g3862"
     showgrid="false"
     fit-margin-top="0"
     fit-margin-left="0"
     fit-margin-right="0"
     fit-margin-bottom="0"
     inkscape:window-width="1440"
     inkscape:window-height="871"
     inkscape:window-x="0"
     inkscape:window-y="0"
     inkscape:window-maximized="1" />
  <metadata
     id="metadata3827">
    <rdf:RDF>
      <cc:Work
         rdf:about="">
        <dc:format>image/svg+xml</dc:format>
        <dc:type
           rdf:resource="http://purl.org/dc/dcmitype/StillImage" />
        <dc:title />
      </cc:Work>
    </rdf:RDF>
  </metadata>
  <g
     inkscape:label="Layer 1"
     inkscape:groupmode="layer"
     id="layer1"
     transform="translate(-255.70295,-489.4132)">
    <g
       id="g3862"
       transform="translate(-381.16009,314.27248)"
       style="fill:#1a1a1a">
      <g
         aria-label="g"
         style="font-style:normal;font-weight:normal;line-height:0%;font-family:sans-serif;-inkscape-font-specification:'Open Sans';letter-spacing:0px;word-spacing:0px;fill:#1a1a1a;fill-opacity:1;stroke:none"
         id="text3800">
        <path
           d="m 678.57738,193.94733 v 4.23598 l -8.18957,0.96823 q 1.1296,1.41199 2.01714,3.71153 0.88754,2.25919 0.88754,5.12352 0,6.49517 -4.4377,10.36807 -4.4377,3.8729 -12.18349,3.8729 -1.97679,0 -3.71153,-0.32275 -4.27632,2.2592 -4.27632,5.68832 0,1.81542 1.49267,2.70296 1.49268,0.8472 5.12353,0.8472 h 7.82648 q 7.181,0 11.01355,3.0257 3.8729,3.0257 3.8729,8.79471 0,7.34237 -5.89003,11.17492 -5.89004,3.8729 -17.18599,3.8729 -8.67368,0 -13.39377,-3.22741 -4.67975,-3.22742 -4.67975,-9.11745 0,-4.03427 2.58193,-6.97929 2.58193,-2.94501 7.26168,-3.99392 -1.69439,-0.76651 -2.86433,-2.38022 -1.12959,-1.61371 -1.12959,-3.75187 0,-2.42056 1.29096,-4.23598 1.29097,-1.81543 4.07462,-3.50982 -3.42913,-1.41199 -5.60764,-4.80078 -2.13816,-3.38878 -2.13816,-7.74579 0,-7.26169 4.35701,-11.17493 4.35701,-3.95358 12.34486,-3.95358 3.46947,0 6.25312,0.80685 z m -35.25951,51.63864 q 0,3.5905 3.0257,5.44627 3.0257,1.85576 8.67368,1.85576 8.43162,0 12.46589,-2.54159 4.07461,-2.50125 4.07461,-6.81791 0,-3.5905 -2.21885,-5.0025 -2.21885,-1.37165 -8.35093,-1.37165 h -8.0282 q -4.55872,0 -7.10031,2.17851 -2.54159,2.1785 -2.54159,6.25311 z m 3.63084,-37.47835 q 0,4.6394 2.62227,7.01962 2.62228,2.38022 7.30203,2.38022 9.80327,0 9.80327,-9.52087 0,-9.96465 -9.9243,-9.96465 -4.72009,0 -7.26168,2.54159 -2.54159,2.54159 -2.54159,7.54409 z"
           style="font-style:normal;font-variant:normal;font-weight:normal;font-stretch:normal;font-size:82.62182617px;line-height:1.25;font-family:'Open Sans';-inkscape-font-specification:'Open Sans';fill:#1a1a1a"
           id="path818" />
      </g>
      <rect
         style="fill:#1a1a1a;fill-opacity:1;stroke:none"
         id="rect3804"
         width="1.4897863"
         height="80.042267"
         x="682.09058"
         y="178.1321" />
      <g
         aria-label="orgias templates"
         style="font-style:normal;font-variant:normal;font-weight:300;font-stretch:normal;line-height:0%;font-family:'Open Sans';-inkscape-font-specification:'Open Sans Light';text-align:start;letter-spacing:0px;word-spacing:0px;writing-mode:lr-tb;text-anchor:start;fill:#1a1a1a;fill-opacity:0.62352941;stroke:none"
         id="text3807">
        <path
           d="m 727.19081,215.92718 q 0,10.73115 -5.20421,16.78255 -5.20421,6.01106 -14.362,6.01106 -5.769,0 -10.16635,-2.78364 -4.39736,-2.78365 -6.73723,-7.98785 -2.33988,-5.20421 -2.33988,-12.02212 0,-10.73116 5.20421,-16.70188 5.2042,-6.01106 14.28131,-6.01106 9.03676,0 14.16028,6.09175 5.16387,6.0514 5.16387,16.62119 z m -34.61403,0 q 0,9.03676 3.95358,14.11994 3.99393,5.04283 11.25561,5.04283 7.26169,0 11.21527,-5.04283 3.99393,-5.08318 3.99393,-14.11994 0,-9.07711 -4.03427,-14.0796 -3.99393,-5.0025 -11.25561,-5.0025 -7.26169,0 -11.21527,5.0025 -3.91324,4.96215 -3.91324,14.0796 z"
           style="font-style:normal;font-variant:normal;font-weight:300;font-stretch:normal;font-size:82.62182617px;line-height:100%;font-family:'Open Sans';-inkscape-font-specification:'Open Sans';text-align:start;letter-spacing:-6.00308228px;writing-mode:lr-tb;text-anchor:start;fill:#1a1a1a;fill-opacity:0.62352941"
           id="path821" />
        <path
           d="m 750.59754,193.21424 q 2.78365,0 5.97072,0.5648 l -0.76651,3.83255 q -2.7433,-0.68582 -5.68832,-0.68582 -5.60763,0 -9.19813,4.76044 -3.5905,4.76043 -3.5905,12.02212 v 24.20561 h -3.99393 v -43.8525 h 3.38879 l 0.40342,7.90716 h 0.2824 q 2.70296,-4.84112 5.76901,-6.77757 3.06604,-1.97679 7.42305,-1.97679 z"
           style="font-style:normal;font-variant:normal;font-weight:300;font-stretch:normal;font-size:82.62182617px;line-height:100%;font-family:'Open Sans';-inkscape-font-specification:'Open Sans';text-align:start;letter-spacing:-6.00308228px;writing-mode:lr-tb;text-anchor:start;fill:#1a1a1a;fill-opacity:0.62352941"
           id="path823" />
        <path
           d="m 793.69151,194.06144 v 2.78364 l -9.0771,0.5648 q 3.63084,4.51838 3.63084,9.9243 0,6.3338 -4.23598,10.28739 -4.19564,3.91324 -11.29596,3.91324 -2.98536,0 -4.19564,-0.24206 -2.38021,1.25063 -3.63084,2.94502 -1.25062,1.69439 -1.25062,3.5905 0,2.09782 1.57336,3.06604 1.61371,0.96823 5.36558,0.96823 h 7.66511 q 7.14066,0 10.93287,2.90467 3.79221,2.86433 3.79221,8.51231 0,6.93894 -5.64797,10.69081 -5.60764,3.79221 -16.01605,3.79221 -8.27025,0 -12.82898,-3.18707 -4.51838,-3.18707 -4.51838,-8.87539 0,-4.51838 2.78365,-7.50374 2.82399,-2.98536 7.62477,-4.07461 -1.97679,-0.8472 -3.18708,-2.38022 -1.16993,-1.57337 -1.16993,-3.5905 0,-4.39735 5.60763,-7.7458 -3.83256,-1.57336 -5.97072,-4.9218 -2.13816,-3.38879 -2.13816,-7.7458 0,-6.57586 4.1553,-10.52944 4.19564,-3.99393 11.29595,-3.99393 4.31667,0 6.69689,0.8472 z M 758.18995,245.337 q 0,9.03676 13.43411,9.03676 17.26667,0 17.26667,-11.01356 0,-3.95358 -2.70296,-5.72866 -2.70296,-1.77508 -8.75436,-1.77508 h -7.181 q -12.06246,0 -12.06246,9.48054 z m 3.34844,-37.59939 q 0,5.08318 3.06604,7.90717 3.10639,2.78364 8.27025,2.78364 5.48661,0 8.39128,-2.78364 2.94502,-2.78365 2.94502,-8.06854 0,-5.60764 -3.0257,-8.39128 -2.98536,-2.82399 -8.39128,-2.82399 -5.24455,0 -8.27025,3.0257 -2.98536,2.98536 -2.98536,8.35094 z"
           style="font-style:normal;font-variant:normal;font-weight:300;font-stretch:normal;font-size:82.62182617px;line-height:100%;font-family:'Open Sans';-inkscape-font-specification:'Open Sans';text-align:start;letter-spacing:-6.00308228px;writing-mode:lr-tb;text-anchor:start;fill:#1a1a1a;fill-opacity:0.62352941"
           id="path825" />
        <path
           d="m 802.57378,237.91394 h -3.99392 v -43.8525 h 3.99392 z m -4.55872,-56.03599 q 0,-3.8729 2.54159,-3.8729 1.25062,0 1.93645,1.00857 0.72617,1.00856 0.72617,2.86433 0,1.81542 -0.72617,2.86433 -0.68583,1.04891 -1.93645,1.04891 -2.54159,0 -2.54159,-3.91324 z"
           style="font-style:normal;font-variant:normal;font-weight:300;font-stretch:normal;font-size:82.62182617px;line-height:100%;font-family:'Open Sans';-inkscape-font-specification:'Open Sans';text-align:start;letter-spacing:-6.00308228px;writing-mode:lr-tb;text-anchor:start;fill:#1a1a1a;fill-opacity:0.62352941"
           id="path827" />
        <path
           d="m 837.12361,237.91394 -1.00857,-6.93894 h -0.32274 q -3.3081,4.23598 -6.81791,6.01106 -3.46947,1.73473 -8.22991,1.73473 -6.45483,0 -10.04533,-3.3081 -3.5905,-3.3081 -3.5905,-9.15779 0,-6.41448 5.32524,-9.96464 5.36557,-3.55016 15.49159,-3.75187 l 8.35093,-0.24206 v -2.90467 q 0,-6.25312 -2.54158,-9.44019 -2.54159,-3.18707 -8.18957,-3.18707 -6.09175,0 -12.62726,3.38878 l -1.49268,-3.46947 q 7.22134,-3.38878 14.28131,-3.38878 7.22134,0 10.7715,3.75187 3.5905,3.75187 3.5905,11.69938 v 29.16776 z m -16.13707,-2.82399 q 7.01962,0 11.05389,-3.99392 4.07461,-4.03427 4.07461,-11.17493 v -4.31667 l -7.66511,0.32275 q -9.23847,0.44376 -13.19206,2.90467 -3.91324,2.42056 -3.91324,7.58442 0,4.11496 2.50125,6.41449 2.54159,2.25919 7.14066,2.25919 z"
           style="font-style:normal;font-variant:normal;font-weight:300;font-stretch:normal;font-size:82.62182617px;line-height:100%;font-family:'Open Sans';-inkscape-font-specification:'Open Sans';text-align:start;letter-spacing:-6.00308228px;writing-mode:lr-tb;text-anchor:start;fill:#1a1a1a;fill-opacity:0.62352941"
           id="path829" />
        <path
           d="m 875.45715,226.49696 q 0,5.89003 -4.47804,9.0771 -4.47804,3.14673 -12.70795,3.14673 -8.7947,0 -13.95857,-2.70296 v -4.31666 q 6.6162,3.3081 13.95857,3.3081 6.49517,0 9.84362,-2.13817 3.38878,-2.1785 3.38878,-5.769 0,-3.3081 -2.70296,-5.56729 -2.66261,-2.25919 -8.7947,-4.4377 -6.57586,-2.38022 -9.23848,-4.07461 -2.66262,-1.73473 -4.03427,-3.8729 -1.33131,-2.1785 -1.33131,-5.28489 0,-4.92181 4.11496,-7.78614 4.15529,-2.86433 11.57835,-2.86433 7.10031,0 13.47446,2.66262 l -1.49268,3.63084 q -6.45483,-2.66262 -11.98178,-2.66262 -5.36558,0 -8.51231,1.77508 -3.14673,1.77508 -3.14673,4.92181 0,3.42913 2.42056,5.48661 2.46091,2.05747 9.56122,4.59906 5.93038,2.13816 8.63334,3.8729 2.70296,1.69439 4.03427,3.8729 1.37165,2.1785 1.37165,5.12352 z"
           style="font-style:normal;font-variant:normal;font-weight:300;font-stretch:normal;font-size:82.62182617px;line-height:100%;font-family:'Open Sans';-inkscape-font-specification:'Open Sans';text-align:start;letter-spacing:-6.00308228px;writing-mode:lr-tb;text-anchor:start;fill:#1a1a1a;fill-opacity:0.62352941"
           id="path831" />
        <path
           d="m 907.78759,235.17064 q 3.79221,0 6.6162,-0.64549 v 3.22742 q -2.90467,0.96822 -6.69689,0.96822 -5.80934,0 -8.59299,-3.10638 -2.7433,-3.10639 -2.7433,-9.76293 v -28.32057 h -6.49518 v -2.33988 l 6.49518,-1.81542 2.01713,-9.9243 h 2.05748 v 10.61013 h 12.86932 v 3.46947 h -12.86932 v 27.75577 q 0,5.04283 1.77508,7.4634 1.77508,2.42056 5.56729,2.42056 z"
           style="font-style:normal;font-variant:normal;font-weight:300;font-stretch:normal;font-size:82.62182617px;line-height:100%;font-family:'Open Sans';-inkscape-font-specification:'Open Sans';text-align:start;letter-spacing:-6.00308228px;writing-mode:lr-tb;text-anchor:start;fill:#1a1a1a;fill-opacity:0.62352941"
           id="path833" />
        <path
           d="m 935.59169,238.72079 q -9.56122,0 -14.9268,-5.89003 -5.32523,-5.89003 -5.32523,-16.50016 0,-10.4891 5.16386,-16.78256 5.16387,-6.3338 13.91823,-6.3338 7.7458,0 12.22384,5.40592 4.47803,5.40592 4.47803,14.68474 v 3.22742 H 919.5353 q 0.0807,9.03676 4.19564,13.79719 4.1553,4.76044 11.86075,4.76044 3.75187,0 6.57586,-0.52445 2.86433,-0.52446 7.22134,-2.25919 v 3.63084 q -3.71153,1.61371 -6.85826,2.1785 -3.14673,0.60514 -6.93894,0.60514 z m -1.16994,-41.95639 q -6.3338,0 -10.16636,4.19564 -3.83255,4.15529 -4.47803,12.02212 h 27.11028 q 0,-7.62477 -3.3081,-11.90109 -3.3081,-4.31667 -9.15779,-4.31667 z"
           style="font-style:normal;font-variant:normal;font-weight:300;font-stretch:normal;font-size:82.62182617px;line-height:100%;font-family:'Open Sans';-inkscape-font-specification:'Open Sans';text-align:start;letter-spacing:-6.00308228px;writing-mode:lr-tb;text-anchor:start;fill:#1a1a1a;fill-opacity:0.62352941"
           id="path835" />
        <path
           d="M 1012.0087,237.91394 V 209.1496 q 0,-6.41448 -2.5012,-9.3595 -2.5013,-2.94502 -7.6652,-2.94502 -6.73718,0 -9.9646,3.71153 -3.22741,3.71153 -3.22741,11.65904 v 25.69829 h -4.07461 v -29.97462 q 0,-11.09424 -10.16636,-11.09424 -6.8986,0 -10.04533,4.03427 -3.14673,3.99393 -3.14673,12.82898 v 24.20561 h -3.99392 v -43.8525 h 3.3081 l 0.84719,6.01106 h 0.24206 q 1.81542,-3.26776 5.16386,-5.04284 3.34845,-1.81542 7.38271,-1.81542 10.36808,0 13.31309,7.78614 h 0.16137 q 2.13817,-3.75187 5.72866,-5.769 3.63085,-2.01714 8.22992,-2.01714 7.181,0 10.7715,3.83256 3.5905,3.83255 3.5905,12.18349 v 28.68365 z"
           style="font-style:normal;font-variant:normal;font-weight:300;font-stretch:normal;font-size:82.62182617px;line-height:100%;font-family:'Open Sans';-inkscape-font-specification:'Open Sans';text-align:start;letter-spacing:-6.00308228px;writing-mode:lr-tb;text-anchor:start;fill:#1a1a1a;fill-opacity:0.62352941"
           id="path837" />
        <path
           d="m 1042.9192,238.72079 q -10.126,0 -14.7654,-7.58442 h -0.2824 l 0.121,3.38878 q 0.1614,2.98536 0.1614,6.53552 v 16.70187 h -3.994 v -63.7011 h 3.3888 l 0.7665,6.25311 h 0.2421 q 4.5184,-7.10031 14.4427,-7.10031 8.8754,0 13.5148,5.84969 4.6797,5.80935 4.6797,16.94393 0,10.81184 -4.9218,16.78256 -4.8814,5.93037 -13.3534,5.93037 z m -0.081,-3.55015 q 6.7372,0 10.4084,-5.0025 3.7115,-5.00249 3.7115,-13.99891 0,-19.32415 -13.9585,-19.32415 -7.6651,0 -11.2556,4.23599 -3.5905,4.19564 -3.5905,13.71651 v 1.29097 q 0,10.28738 3.4291,14.68473 3.4695,4.39736 11.2556,4.39736 z"
           style="font-style:normal;font-variant:normal;font-weight:300;font-stretch:normal;font-size:82.62182617px;line-height:100%;font-family:'Open Sans';-inkscape-font-specification:'Open Sans';text-align:start;letter-spacing:-6.00308228px;writing-mode:lr-tb;text-anchor:start;fill:#1a1a1a;fill-opacity:0.62352941"
           id="path839" />
        <path
           d="m 1071.3284,237.91394 h -3.9939 v -62.77322 h 3.9939 z"
           style="font-style:normal;font-variant:normal;font-weight:300;font-stretch:normal;font-size:82.62182617px;line-height:100%;font-family:'Open Sans';-inkscape-font-specification:'Open Sans';text-align:start;letter-spacing:-6.00308228px;writing-mode:lr-tb;text-anchor:start;fill:#1a1a1a;fill-opacity:0.62352941"
           id="path841" />
        <path
           d="m 1106.6363,237.91394 -1.0086,-6.93894 h -0.3227 q -3.3081,4.23598 -6.818,6.01106 -3.4694,1.73473 -8.2299,1.73473 -6.4548,0 -10.0453,-3.3081 -3.5905,-3.3081 -3.5905,-9.15779 0,-6.41448 5.3252,-9.96464 5.3656,-3.55016 15.4916,-3.75187 l 8.351,-0.24206 v -2.90467 q 0,-6.25312 -2.5416,-9.44019 -2.5416,-3.18707 -8.1896,-3.18707 -6.0917,0 -12.6272,3.38878 l -1.4927,-3.46947 q 7.2213,-3.38878 14.2813,-3.38878 7.2213,0 10.7715,3.75187 3.5905,3.75187 3.5905,11.69938 v 29.16776 z m -16.1371,-2.82399 q 7.0196,0 11.0539,-3.99392 4.0746,-4.03427 4.0746,-11.17493 v -4.31667 l -7.6651,0.32275 q -9.2385,0.44376 -13.1921,2.90467 -3.9132,2.42056 -3.9132,7.58442 0,4.11496 2.5012,6.41449 2.5416,2.25919 7.1407,2.25919 z"
           style="font-style:normal;font-variant:normal;font-weight:300;font-stretch:normal;font-size:82.62182617px;line-height:100%;font-family:'Open Sans';-inkscape-font-specification:'Open Sans';text-align:start;letter-spacing:-6.00308228px;writing-mode:lr-tb;text-anchor:start;fill:#1a1a1a;fill-opacity:0.62352941"
           id="path843" />
        <path
           d="m 1129.3572,235.17064 q 3.7922,0 6.6162,-0.64549 v 3.22742 q -2.9047,0.96822 -6.6969,0.96822 -5.8094,0 -8.593,-3.10638 -2.7433,-3.10639 -2.7433,-9.76293 v -28.32057 h -6.4952 v -2.33988 l 6.4952,-1.81542 2.0171,-9.9243 h 2.0575 v 10.61013 h 12.8693 v 3.46947 h -12.8693 v 27.75577 q 0,5.04283 1.7751,7.4634 1.775,2.42056 5.5673,2.42056 z"
           style="font-style:normal;font-variant:normal;font-weight:300;font-stretch:normal;font-size:82.62182617px;line-height:100%;font-family:'Open Sans';-inkscape-font-specification:'Open Sans';text-align:start;letter-spacing:-6.00308228px;writing-mode:lr-tb;text-anchor:start;fill:#1a1a1a;fill-opacity:0.62352941"
           id="path845" />
        <path
           d="m 1157.1613,238.72079 q -9.5612,0 -14.9268,-5.89003 -5.3253,-5.89003 -5.3253,-16.50016 0,-10.4891 5.1639,-16.78256 5.1639,-6.3338 13.9182,-6.3338 7.7458,0 12.2239,5.40592 4.478,5.40592 4.478,14.68474 v 3.22742 h -31.5883 q 0.081,9.03676 4.1956,13.79719 4.1553,4.76044 11.8608,4.76044 3.7518,0 6.5758,-0.52445 2.8644,-0.52446 7.2214,-2.25919 v 3.63084 q -3.7116,1.61371 -6.8583,2.1785 -3.1467,0.60514 -6.9389,0.60514 z m -1.17,-41.95639 q -6.3338,0 -10.1663,4.19564 -3.8326,4.15529 -4.4781,12.02212 h 27.1103 q 0,-7.62477 -3.3081,-11.90109 -3.3081,-4.31667 -9.1578,-4.31667 z"
           style="font-style:normal;font-variant:normal;font-weight:300;font-stretch:normal;font-size:82.62182617px;line-height:100%;font-family:'Open Sans';-inkscape-font-specification:'Open Sans';text-align:start;letter-spacing:-6.00308228px;writing-mode:lr-tb;text-anchor:start;fill:#1a1a1a;fill-opacity:0.62352941"
           id="path847" />
        <path
           d="m 1205.9839,226.49696 q 0,5.89003 -4.478,9.0771 -4.4781,3.14673 -12.708,3.14673 -8.7947,0 -13.9586,-2.70296 v -4.31666 q 6.6162,3.3081 13.9586,3.3081 6.4952,0 9.8436,-2.13817 3.3888,-2.1785 3.3888,-5.769 0,-3.3081 -2.7029,-5.56729 -2.6627,-2.25919 -8.7947,-4.4377 -6.5759,-2.38022 -9.2385,-4.07461 -2.6626,-1.73473 -4.0343,-3.8729 -1.3313,-2.1785 -1.3313,-5.28489 0,-4.92181 4.115,-7.78614 4.1553,-2.86433 11.5783,-2.86433 7.1003,0 13.4745,2.66262 l -1.4927,3.63084 q -6.4548,-2.66262 -11.9818,-2.66262 -5.3656,0 -8.5123,1.77508 -3.1467,1.77508 -3.1467,4.92181 0,3.42913 2.4205,5.48661 2.4609,2.05747 9.5612,4.59906 5.9304,2.13816 8.6334,3.8729 2.7029,1.69439 4.0343,3.8729 1.3716,2.1785 1.3716,5.12352 z"
           style="font-style:normal;font-variant:normal;font-weight:300;font-stretch:normal;font-size:82.62182617px;line-height:100%;font-family:'Open Sans';-inkscape-font-specification:'Open Sans';text-align:start;letter-spacing:-6.00308228px;writing-mode:lr-tb;text-anchor:start;fill:#1a1a1a;fill-opacity:0.62352941"
           id="path849" />
      </g>
    </g>
  </g>
</svg>
